# xmcd
#
# Track frame offsets: 
#        150
#        12957
#        26581
#        38326
#        48506
#        70383
#        83778
#        95630
#        113330
#        128931
#
# Disc length: 1940 seconds
#
# Revision: 0
# Processed by: cddbd v1.5.2PL0 Copyright (c) Steve Scherf et al.
# Submitted via: ExactAudioCopyFreeDBPlugin 1.0
#
DISCID=7607920a
DTITLE=Swamp Dogg - Best of Swamp Dogg's Soul and Blues Collection
DYEAR=2015
DGENRE=R&B
TTITLE0=Sandra Phillips - Rescue Me
TTITLE1=Lightning Slim - Good Morning Heartaches
TTITLE2=Irma Thomas - In Between Tears
TTITLE3=Charlie Whitehead - Read Between the Lines
TTITLE4=Z.Z. Hill - It Ain't No Use
TTITLE5=Doris Duke - To the Other Woman (I'm the Other Woman)
TTITLE6=Wolfmoon - What Is Heaven For
TTITLE7=Fuck the Bomb Stop the Drugs
TTITLE8=Synthetic World
TTITLE9=My Life Ain't Nothing But a Blues Song
EXTD=
EXTT0=
EXTT1=
EXTT2=
EXTT3=
EXTT4=
EXTT5=
EXTT6=
EXTT7=
EXTT8=
EXTT9=
PLAYORDER=
